<svg class="rich-terminal" viewBox="0 0 1385 830.8" xmlns="http://www.w3.org/2000/svg">
    <!-- Generated with Rich https://www.textualize.io -->
    <style>

    @font-face {
        font-family: "Fira Code";
        src: local("FiraCode-Regular"),
                url("https://cdnjs.cloudflare.com/ajax/libs/firacode/6.2.0/woff2/FiraCode-Regular.woff2") format("woff2"),
                url("https://cdnjs.cloudflare.com/ajax/libs/firacode/6.2.0/woff/FiraCode-Regular.woff") format("woff");
        font-style: normal;
        font-weight: 400;
    }
    @font-face {
        font-family: "Fira Code";
        src: local("FiraCode-Bold"),
                url("https://cdnjs.cloudflare.com/ajax/libs/firacode/6.2.0/woff2/FiraCode-Bold.woff2") format("woff2"),
                url("https://cdnjs.cloudflare.com/ajax/libs/firacode/6.2.0/woff/FiraCode-Bold.woff") format("woff");
        font-style: bold;
        font-weight: 700;
    }

    .terminal-3309028997-matrix {
        font-family: Fira Code, monospace;
        font-size: 20px;
        line-height: 24.4px;
        font-variant-east-asian: full-width;
    }

    .terminal-3309028997-title {
        font-size: 18px;
        font-weight: bold;
        font-family: arial;
    }

    .terminal-3309028997-r1 { fill: #c5c8c6 }
.terminal-3309028997-r2 { fill: #e0e0e0 }
.terminal-3309028997-r3 { fill: #e0e0e0;font-weight: bold }
.terminal-3309028997-r4 { fill: #272727 }
.terminal-3309028997-r5 { fill: #ddedf9;font-weight: bold }
.terminal-3309028997-r6 { fill: #000000 }
.terminal-3309028997-r7 { fill: #797979 }
.terminal-3309028997-r8 { fill: #262626 }
.terminal-3309028997-r9 { fill: #0178d4 }
.terminal-3309028997-r10 { fill: #ffa62b;font-weight: bold }
    </style>

    <defs>
    <clipPath id="terminal-3309028997-clip-terminal">
      <rect x="0" y="0" width="1365.3999999999999" height="779.8" />
    </clipPath>
    <clipPath id="terminal-3309028997-line-0">
    <rect x="0" y="1.5" width="1366.4" height="24.65"/>
            </clipPath>
<clipPath id="terminal-3309028997-line-1">
    <rect x="0" y="25.9" width="1366.4" height="24.65"/>
            </clipPath>
<clipPath id="terminal-3309028997-line-2">
    <rect x="0" y="50.3" width="1366.4" height="24.65"/>
            </clipPath>
<clipPath id="terminal-3309028997-line-3">
    <rect x="0" y="74.7" width="1366.4" height="24.65"/>
            </clipPath>
<clipPath id="terminal-3309028997-line-4">
    <rect x="0" y="99.1" width="1366.4" height="24.65"/>
            </clipPath>
<clipPath id="terminal-3309028997-line-5">
    <rect x="0" y="123.5" width="1366.4" height="24.65"/>
            </clipPath>
<clipPath id="terminal-3309028997-line-6">
    <rect x="0" y="147.9" width="1366.4" height="24.65"/>
            </clipPath>
<clipPath id="terminal-3309028997-line-7">
    <rect x="0" y="172.3" width="1366.4" height="24.65"/>
            </clipPath>
<clipPath id="terminal-3309028997-line-8">
    <rect x="0" y="196.7" width="1366.4" height="24.65"/>
            </clipPath>
<clipPath id="terminal-3309028997-line-9">
    <rect x="0" y="221.1" width="1366.4" height="24.65"/>
            </clipPath>
<clipPath id="terminal-3309028997-line-10">
    <rect x="0" y="245.5" width="1366.4" height="24.65"/>
            </clipPath>
<clipPath id="terminal-3309028997-line-11">
    <rect x="0" y="269.9" width="1366.4" height="24.65"/>
            </clipPath>
<clipPath id="terminal-3309028997-line-12">
    <rect x="0" y="294.3" width="1366.4" height="24.65"/>
            </clipPath>
<clipPath id="terminal-3309028997-line-13">
    <rect x="0" y="318.7" width="1366.4" height="24.65"/>
            </clipPath>
<clipPath id="terminal-3309028997-line-14">
    <rect x="0" y="343.1" width="1366.4" height="24.65"/>
            </clipPath>
<clipPath id="terminal-3309028997-line-15">
    <rect x="0" y="367.5" width="1366.4" height="24.65"/>
            </clipPath>
<clipPath id="terminal-3309028997-line-16">
    <rect x="0" y="391.9" width="1366.4" height="24.65"/>
            </clipPath>
<clipPath id="terminal-3309028997-line-17">
    <rect x="0" y="416.3" width="1366.4" height="24.65"/>
            </clipPath>
<clipPath id="terminal-3309028997-line-18">
    <rect x="0" y="440.7" width="1366.4" height="24.65"/>
            </clipPath>
<clipPath id="terminal-3309028997-line-19">
    <rect x="0" y="465.1" width="1366.4" height="24.65"/>
            </clipPath>
<clipPath id="terminal-3309028997-line-20">
    <rect x="0" y="489.5" width="1366.4" height="24.65"/>
            </clipPath>
<clipPath id="terminal-3309028997-line-21">
    <rect x="0" y="513.9" width="1366.4" height="24.65"/>
            </clipPath>
<clipPath id="terminal-3309028997-line-22">
    <rect x="0" y="538.3" width="1366.4" height="24.65"/>
            </clipPath>
<clipPath id="terminal-3309028997-line-23">
    <rect x="0" y="562.7" width="1366.4" height="24.65"/>
            </clipPath>
<clipPath id="terminal-3309028997-line-24">
    <rect x="0" y="587.1" width="1366.4" height="24.65"/>
            </clipPath>
<clipPath id="terminal-3309028997-line-25">
    <rect x="0" y="611.5" width="1366.4" height="24.65"/>
            </clipPath>
<clipPath id="terminal-3309028997-line-26">
    <rect x="0" y="635.9" width="1366.4" height="24.65"/>
            </clipPath>
<clipPath id="terminal-3309028997-line-27">
    <rect x="0" y="660.3" width="1366.4" height="24.65"/>
            </clipPath>
<clipPath id="terminal-3309028997-line-28">
    <rect x="0" y="684.7" width="1366.4" height="24.65"/>
            </clipPath>
<clipPath id="terminal-3309028997-line-29">
    <rect x="0" y="709.1" width="1366.4" height="24.65"/>
            </clipPath>
<clipPath id="terminal-3309028997-line-30">
    <rect x="0" y="733.5" width="1366.4" height="24.65"/>
            </clipPath>
    </defs>

    <rect fill="#292929" stroke="rgba(255,255,255,0.35)" stroke-width="1" x="1" y="1" width="1383" height="828.8" rx="8"/><text class="terminal-3309028997-title" fill="#c5c8c6" text-anchor="middle" x="691" y="27">nsc&#160;tui</text>
            <g transform="translate(26,22)">
            <circle cx="0" cy="0" r="7" fill="#ff5f57"/>
            <circle cx="22" cy="0" r="7" fill="#febc2e"/>
            <circle cx="44" cy="0" r="7" fill="#28c840"/>
            </g>

    <g transform="translate(9, 41)" clip-path="url(#terminal-3309028997-clip-terminal)">
    <rect fill="#242f38" x="0" y="1.5" width="12.2" height="24.65" shape-rendering="crispEdges"/><rect fill="#242f38" x="12.2" y="1.5" width="12.2" height="24.65" shape-rendering="crispEdges"/><rect fill="#242f38" x="24.4" y="1.5" width="61" height="24.65" shape-rendering="crispEdges"/><rect fill="#242f38" x="85.4" y="1.5" width="12.2" height="24.65" shape-rendering="crispEdges"/><rect fill="#242f38" x="97.6" y="1.5" width="500.2" height="24.65" shape-rendering="crispEdges"/><rect fill="#242f38" x="597.8" y="1.5" width="146.4" height="24.65" shape-rendering="crispEdges"/><rect fill="#242f38" x="744.2" y="1.5" width="500.2" height="24.65" shape-rendering="crispEdges"/><rect fill="#242f38" x="1244.4" y="1.5" width="12.2" height="24.65" shape-rendering="crispEdges"/><rect fill="#242f38" x="1256.6" y="1.5" width="0" height="24.65" shape-rendering="crispEdges"/><rect fill="#242f38" x="1256.6" y="1.5" width="97.6" height="24.65" shape-rendering="crispEdges"/><rect fill="#242f38" x="1354.2" y="1.5" width="12.2" height="24.65" shape-rendering="crispEdges"/><rect fill="#2d3740" x="0" y="25.9" width="244" height="24.65" shape-rendering="crispEdges"/><rect fill="#2d3740" x="244" y="25.9" width="231.8" height="24.65" shape-rendering="crispEdges"/><rect fill="#2d3740" x="475.8" y="25.9" width="866.2" height="24.65" shape-rendering="crispEdges"/><rect fill="#003054" x="1342" y="25.9" width="24.4" height="24.65" shape-rendering="crispEdges"/><rect fill="#0178d4" x="0" y="50.3" width="244" height="24.65" shape-rendering="crispEdges"/><rect fill="#0178d4" x="244" y="50.3" width="231.8" height="24.65" shape-rendering="crispEdges"/><rect fill="#0178d4" x="475.8" y="50.3" width="866.2" height="24.65" shape-rendering="crispEdges"/><rect fill="#003054" x="1342" y="50.3" width="24.4" height="24.65" shape-rendering="crispEdges"/><rect fill="#272727" x="0" y="74.7" width="244" height="24.65" shape-rendering="crispEdges"/><rect fill="#272727" x="244" y="74.7" width="231.8" height="24.65" shape-rendering="crispEdges"/><rect fill="#272727" x="475.8" y="74.7" width="866.2" height="24.65" shape-rendering="crispEdges"/><rect fill="#003054" x="1342" y="74.7" width="24.4" height="24.65" shape-rendering="crispEdges"/><rect fill="#272727" x="0" y="99.1" width="244" height="24.65" shape-rendering="crispEdges"/><rect fill="#272727" x="244" y="99.1" width="231.8" height="24.65" shape-rendering="crispEdges"/><rect fill="#272727" x="475.8" y="99.1" width="866.2" height="24.65" shape-rendering="crispEdges"/><rect fill="#003054" x="1342" y="99.1" width="24.4" height="24.65" shape-rendering="crispEdges"/><rect fill="#272727" x="0" y="123.5" width="244" height="24.65" shape-rendering="crispEdges"/><rect fill="#272727" x="244" y="123.5" width="231.8" height="24.65" shape-rendering="crispEdges"/><rect fill="#272727" x="475.8" y="123.5" width="866.2" height="24.65" shape-rendering="crispEdges"/><rect fill="#003054" x="1342" y="123.5" width="24.4" height="24.65" shape-rendering="crispEdges"/><rect fill="#272727" x="0" y="147.9" width="244" height="24.65" shape-rendering="crispEdges"/><rect fill="#272727" x="244" y="147.9" width="231.8" height="24.65" shape-rendering="crispEdges"/><rect fill="#272727" x="475.8" y="147.9" width="866.2" height="24.65" shape-rendering="crispEdges"/><rect fill="#003054" x="1342" y="147.9" width="24.4" height="24.65" shape-rendering="crispEdges"/><rect fill="#272727" x="0" y="172.3" width="244" height="24.65" shape-rendering="crispEdges"/><rect fill="#272727" x="244" y="172.3" width="231.8" height="24.65" shape-rendering="crispEdges"/><rect fill="#272727" x="475.8" y="172.3" width="866.2" height="24.65" shape-rendering="crispEdges"/><rect fill="#003054" x="1342" y="172.3" width="24.4" height="24.65" shape-rendering="crispEdges"/><rect fill="#272727" x="0" y="196.7" width="244" height="24.65" shape-rendering="crispEdges"/><rect fill="#272727" x="244" y="196.7" width="231.8" height="24.65" shape-rendering="crispEdges"/><rect fill="#272727" x="475.8" y="196.7" width="866.2" height="24.65" shape-rendering="crispEdges"/><rect fill="#003054" x="1342" y="196.7" width="24.4" height="24.65" shape-rendering="crispEdges"/><rect fill="#272727" x="0" y="221.1" width="244" height="24.65" shape-rendering="crispEdges"/><rect fill="#272727" x="244" y="221.1" width="231.8" height="24.65" shape-rendering="crispEdges"/><rect fill="#272727" x="475.8" y="221.1" width="866.2" height="24.65" shape-rendering="crispEdges"/><rect fill="#003054" x="1342" y="221.1" width="24.4" height="24.65" shape-rendering="crispEdges"/><rect fill="#272727" x="0" y="245.5" width="244" height="24.65" shape-rendering="crispEdges"/><rect fill="#272727" x="244" y="245.5" width="231.8" height="24.65" shape-rendering="crispEdges"/><rect fill="#272727" x="475.8" y="245.5" width="866.2" height="24.65" shape-rendering="crispEdges"/><rect fill="#003054" x="1342" y="245.5" width="24.4" height="24.65" shape-rendering="crispEdges"/><rect fill="#272727" x="0" y="269.9" width="244" height="24.65" shape-rendering="crispEdges"/><rect fill="#272727" x="244" y="269.9" width="231.8" height="24.65" shape-rendering="crispEdges"/><rect fill="#272727" x="475.8" y="269.9" width="866.2" height="24.65" shape-rendering="crispEdges"/><rect fill="#003054" x="1342" y="269.9" width="24.4" height="24.65" shape-rendering="crispEdges"/><rect fill="#272727" x="0" y="294.3" width="244" height="24.65" shape-rendering="crispEdges"/><rect fill="#272727" x="244" y="294.3" width="231.8" height="24.65" shape-rendering="crispEdges"/><rect fill="#272727" x="475.8" y="294.3" width="866.2" height="24.65" shape-rendering="crispEdges"/><rect fill="#003054" x="1342" y="294.3" width="24.4" height="24.65" shape-rendering="crispEdges"/><rect fill="#272727" x="0" y="318.7" width="244" height="24.65" shape-rendering="crispEdges"/><rect fill="#272727" x="244" y="318.7" width="231.8" height="24.65" shape-rendering="crispEdges"/><rect fill="#272727" x="475.8" y="318.7" width="866.2" height="24.65" shape-rendering="crispEdges"/><rect fill="#003054" x="1342" y="318.7" width="24.4" height="24.65" shape-rendering="crispEdges"/><rect fill="#272727" x="0" y="343.1" width="244" height="24.65" shape-rendering="crispEdges"/><rect fill="#272727" x="244" y="343.1" width="231.8" height="24.65" shape-rendering="crispEdges"/><rect fill="#272727" x="475.8" y="343.1" width="866.2" height="24.65" shape-rendering="crispEdges"/><rect fill="#003054" x="1342" y="343.1" width="24.4" height="24.65" shape-rendering="crispEdges"/><rect fill="#272727" x="0" y="367.5" width="244" height="24.65" shape-rendering="crispEdges"/><rect fill="#272727" x="244" y="367.5" width="231.8" height="24.65" shape-rendering="crispEdges"/><rect fill="#272727" x="475.8" y="367.5" width="866.2" height="24.65" shape-rendering="crispEdges"/><rect fill="#003054" x="1342" y="367.5" width="24.4" height="24.65" shape-rendering="crispEdges"/><rect fill="#272727" x="0" y="391.9" width="244" height="24.65" shape-rendering="crispEdges"/><rect fill="#272727" x="244" y="391.9" width="231.8" height="24.65" shape-rendering="crispEdges"/><rect fill="#272727" x="475.8" y="391.9" width="866.2" height="24.65" shape-rendering="crispEdges"/><rect fill="#003054" x="1342" y="391.9" width="24.4" height="24.65" shape-rendering="crispEdges"/><rect fill="#272727" x="0" y="416.3" width="244" height="24.65" shape-rendering="crispEdges"/><rect fill="#272727" x="244" y="416.3" width="231.8" height="24.65" shape-rendering="crispEdges"/><rect fill="#272727" x="475.8" y="416.3" width="866.2" height="24.65" shape-rendering="crispEdges"/><rect fill="#003054" x="1342" y="416.3" width="24.4" height="24.65" shape-rendering="crispEdges"/><rect fill="#272727" x="0" y="440.7" width="244" height="24.65" shape-rendering="crispEdges"/><rect fill="#272727" x="244" y="440.7" width="231.8" height="24.65" shape-rendering="crispEdges"/><rect fill="#272727" x="475.8" y="440.7" width="866.2" height="24.65" shape-rendering="crispEdges"/><rect fill="#003054" x="1342" y="440.7" width="24.4" height="24.65" shape-rendering="crispEdges"/><rect fill="#272727" x="0" y="465.1" width="244" height="24.65" shape-rendering="crispEdges"/><rect fill="#272727" x="244" y="465.1" width="231.8" height="24.65" shape-rendering="crispEdges"/><rect fill="#272727" x="475.8" y="465.1" width="866.2" height="24.65" shape-rendering="crispEdges"/><rect fill="#003054" x="1342" y="465.1" width="24.4" height="24.65" shape-rendering="crispEdges"/><rect fill="#272727" x="0" y="489.5" width="244" height="24.65" shape-rendering="crispEdges"/><rect fill="#272727" x="244" y="489.5" width="231.8" height="24.65" shape-rendering="crispEdges"/><rect fill="#272727" x="475.8" y="489.5" width="866.2" height="24.65" shape-rendering="crispEdges"/><rect fill="#003054" x="1342" y="489.5" width="24.4" height="24.65" shape-rendering="crispEdges"/><rect fill="#272727" x="0" y="513.9" width="244" height="24.65" shape-rendering="crispEdges"/><rect fill="#272727" x="244" y="513.9" width="231.8" height="24.65" shape-rendering="crispEdges"/><rect fill="#272727" x="475.8" y="513.9" width="866.2" height="24.65" shape-rendering="crispEdges"/><rect fill="#003054" x="1342" y="513.9" width="24.4" height="24.65" shape-rendering="crispEdges"/><rect fill="#272727" x="0" y="538.3" width="244" height="24.65" shape-rendering="crispEdges"/><rect fill="#272727" x="244" y="538.3" width="231.8" height="24.65" shape-rendering="crispEdges"/><rect fill="#272727" x="475.8" y="538.3" width="866.2" height="24.65" shape-rendering="crispEdges"/><rect fill="#003054" x="1342" y="538.3" width="24.4" height="24.65" shape-rendering="crispEdges"/><rect fill="#272727" x="0" y="562.7" width="244" height="24.65" shape-rendering="crispEdges"/><rect fill="#272727" x="244" y="562.7" width="231.8" height="24.65" shape-rendering="crispEdges"/><rect fill="#272727" x="475.8" y="562.7" width="866.2" height="24.65" shape-rendering="crispEdges"/><rect fill="#003054" x="1342" y="562.7" width="24.4" height="24.65" shape-rendering="crispEdges"/><rect fill="#272727" x="0" y="587.1" width="244" height="24.65" shape-rendering="crispEdges"/><rect fill="#272727" x="244" y="587.1" width="231.8" height="24.65" shape-rendering="crispEdges"/><rect fill="#272727" x="475.8" y="587.1" width="866.2" height="24.65" shape-rendering="crispEdges"/><rect fill="#003054" x="1342" y="587.1" width="24.4" height="24.65" shape-rendering="crispEdges"/><rect fill="#272727" x="0" y="611.5" width="244" height="24.65" shape-rendering="crispEdges"/><rect fill="#272727" x="244" y="611.5" width="231.8" height="24.65" shape-rendering="crispEdges"/><rect fill="#272727" x="475.8" y="611.5" width="866.2" height="24.65" shape-rendering="crispEdges"/><rect fill="#000000" x="1342" y="611.5" width="24.4" height="24.65" shape-rendering="crispEdges"/><rect fill="#272727" x="0" y="635.9" width="244" height="24.65" shape-rendering="crispEdges"/><rect fill="#272727" x="244" y="635.9" width="231.8" height="24.65" shape-rendering="crispEdges"/><rect fill="#272727" x="475.8" y="635.9" width="866.2" height="24.65" shape-rendering="crispEdges"/><rect fill="#000000" x="1342" y="635.9" width="24.4" height="24.65" shape-rendering="crispEdges"/><rect fill="#272727" x="0" y="660.3" width="244" height="24.65" shape-rendering="crispEdges"/><rect fill="#272727" x="244" y="660.3" width="231.8" height="24.65" shape-rendering="crispEdges"/><rect fill="#272727" x="475.8" y="660.3" width="866.2" height="24.65" shape-rendering="crispEdges"/><rect fill="#000000" x="1342" y="660.3" width="24.4" height="24.65" shape-rendering="crispEdges"/><rect fill="#272727" x="0" y="684.7" width="244" height="24.65" shape-rendering="crispEdges"/><rect fill="#272727" x="244" y="684.7" width="231.8" height="24.65" shape-rendering="crispEdges"/><rect fill="#272727" x="475.8" y="684.7" width="866.2" height="24.65" shape-rendering="crispEdges"/><rect fill="#000000" x="1342" y="684.7" width="24.4" height="24.65" shape-rendering="crispEdges"/><rect fill="#121212" x="0" y="709.1" width="12.2" height="24.65" shape-rendering="crispEdges"/><rect fill="#121212" x="12.2" y="709.1" width="73.2" height="24.65" shape-rendering="crispEdges"/><rect fill="#121212" x="85.4" y="709.1" width="12.2" height="24.65" shape-rendering="crispEdges"/><rect fill="#121212" x="97.6" y="709.1" width="12.2" height="24.65" shape-rendering="crispEdges"/><rect fill="#121212" x="109.8" y="709.1" width="158.6" height="24.65" shape-rendering="crispEdges"/><rect fill="#121212" x="268.4" y="709.1" width="12.2" height="24.65" shape-rendering="crispEdges"/><rect fill="#121212" x="280.6" y="709.1" width="12.2" height="24.65" shape-rendering="crispEdges"/><rect fill="#121212" x="292.8" y="709.1" width="244" height="24.65" shape-rendering="crispEdges"/><rect fill="#121212" x="536.8" y="709.1" width="12.2" height="24.65" shape-rendering="crispEdges"/><rect fill="#121212" x="549" y="709.1" width="12.2" height="24.65" shape-rendering="crispEdges"/><rect fill="#121212" x="561.2" y="709.1" width="134.2" height="24.65" shape-rendering="crispEdges"/><rect fill="#121212" x="695.4" y="709.1" width="12.2" height="24.65" shape-rendering="crispEdges"/><rect fill="#121212" x="707.6" y="709.1" width="12.2" height="24.65" shape-rendering="crispEdges"/><rect fill="#121212" x="719.8" y="709.1" width="134.2" height="24.65" shape-rendering="crispEdges"/><rect fill="#121212" x="854" y="709.1" width="12.2" height="24.65" shape-rendering="crispEdges"/><rect fill="#121212" x="866.2" y="709.1" width="12.2" height="24.65" shape-rendering="crispEdges"/><rect fill="#121212" x="878.4" y="709.1" width="122" height="24.65" shape-rendering="crispEdges"/><rect fill="#121212" x="1000.4" y="709.1" width="12.2" height="24.65" shape-rendering="crispEdges"/><rect fill="#121212" x="1012.6" y="709.1" width="12.2" height="24.65" shape-rendering="crispEdges"/><rect fill="#121212" x="1024.8" y="709.1" width="183" height="24.65" shape-rendering="crispEdges"/><rect fill="#121212" x="1207.8" y="709.1" width="12.2" height="24.65" shape-rendering="crispEdges"/><rect fill="#121212" x="1220" y="709.1" width="12.2" height="24.65" shape-rendering="crispEdges"/><rect fill="#121212" x="1232.2" y="709.1" width="134.2" height="24.65" shape-rendering="crispEdges"/><rect fill="#121212" x="0" y="733.5" width="12.2" height="24.65" shape-rendering="crispEdges"/><rect fill="#121212" x="12.2" y="733.5" width="73.2" height="24.65" shape-rendering="crispEdges"/><rect fill="#121212" x="85.4" y="733.5" width="12.2" height="24.65" shape-rendering="crispEdges"/><rect fill="#121212" x="97.6" y="733.5" width="1268.8" height="24.65" shape-rendering="crispEdges"/><rect fill="#242f38" x="0" y="757.9" width="61" height="24.65" shape-rendering="crispEdges"/><rect fill="#242f38" x="61" y="757.9" width="109.8" height="24.65" shape-rendering="crispEdges"/><rect fill="#242f38" x="170.8" y="757.9" width="134.2" height="24.65" shape-rendering="crispEdges"/><rect fill="#242f38" x="305" y="757.9" width="109.8" height="24.65" shape-rendering="crispEdges"/><rect fill="#242f38" x="414.8" y="757.9" width="36.6" height="24.65" shape-rendering="crispEdges"/><rect fill="#242f38" x="451.4" y="757.9" width="61" height="24.65" shape-rendering="crispEdges"/><rect fill="#242f38" x="512.4" y="757.9" width="36.6" height="24.65" shape-rendering="crispEdges"/><rect fill="#242f38" x="549" y="757.9" width="61" height="24.65" shape-rendering="crispEdges"/><rect fill="#242f38" x="610" y="757.9" width="48.8" height="24.65" shape-rendering="crispEdges"/><rect fill="#242f38" x="658.8" y="757.9" width="170.8" height="24.65" shape-rendering="crispEdges"/><rect fill="#242f38" x="829.6" y="757.9" width="48.8" height="24.65" shape-rendering="crispEdges"/><rect fill="#242f38" x="878.4" y="757.9" width="85.4" height="24.65" shape-rendering="crispEdges"/><rect fill="#242f38" x="963.8" y="757.9" width="61" height="24.65" shape-rendering="crispEdges"/><rect fill="#242f38" x="1024.8" y="757.9" width="61" height="24.65" shape-rendering="crispEdges"/><rect fill="#242f38" x="1085.8" y="757.9" width="36.6" height="24.65" shape-rendering="crispEdges"/><rect fill="#242f38" x="1122.4" y="757.9" width="134.2" height="24.65" shape-rendering="crispEdges"/><rect fill="#242f38" x="1256.6" y="757.9" width="36.6" height="24.65" shape-rendering="crispEdges"/><rect fill="#242f38" x="1293.2" y="757.9" width="73.2" height="24.65" shape-rendering="crispEdges"/>
    <g class="terminal-3309028997-matrix">
    <text class="terminal-3309028997-r2" x="12.2" y="20" textLength="12.2" clip-path="url(#terminal-3309028997-line-0)">⭘</text><text class="terminal-3309028997-r2" x="597.8" y="20" textLength="146.4" clip-path="url(#terminal-3309028997-line-0)">devices&#160;#111</text><text class="terminal-3309028997-r1" x="1366.4" y="20" textLength="12.2" clip-path="url(#terminal-3309028997-line-0)">
</text><text class="terminal-3309028997-r3" x="0" y="44.4" textLength="244" clip-path="url(#terminal-3309028997-line-1)">&#160;field&#160;&#160;&#160;&#160;&#160;&#160;&#160;&#160;&#160;&#160;&#160;&#160;&#160;&#160;</text><text class="terminal-3309028997-r3" x="244" y="44.4" textLength="231.8" clip-path="url(#terminal-3309028997-line-1)">&#160;value&#160;&#160;&#160;&#160;&#160;&#160;&#160;&#160;&#160;&#160;&#160;&#160;&#160;</text><text class="terminal-3309028997-r1" x="1366.4" y="44.4" textLength="12.2" clip-path="url(#terminal-3309028997-line-1)">
</text><text class="terminal-3309028997-r5" x="0" y="68.8" textLength="244" clip-path="url(#terminal-3309028997-line-2)">&#160;name&#160;&#160;&#160;&#160;&#160;&#160;&#160;&#160;&#160;&#160;&#160;&#160;&#160;&#160;&#160;</text><text class="terminal-3309028997-r5" x="244" y="68.8" textLength="231.8" clip-path="url(#terminal-3309028997-line-2)">&#160;dmi01-akron-pdu01&#160;</text><text class="terminal-3309028997-r1" x="1366.4" y="68.8" textLength="12.2" clip-path="url(#terminal-3309028997-line-2)">
</text><text class="terminal-3309028997-r2" x="0" y="93.2" textLength="244" clip-path="url(#terminal-3309028997-line-3)">&#160;device_type&#160;&#160;&#160;&#160;&#160;&#160;&#160;&#160;</text><text class="terminal-3309028997-r1" x="1366.4" y="93.2" textLength="12.2" clip-path="url(#terminal-3309028997-line-3)">
</text><text class="terminal-3309028997-r2" x="0" y="117.6" textLength="244" clip-path="url(#terminal-3309028997-line-4)">&#160;role&#160;&#160;&#160;&#160;&#160;&#160;&#160;&#160;&#160;&#160;&#160;&#160;&#160;&#160;&#160;</text><text class="terminal-3309028997-r2" x="244" y="117.6" textLength="231.8" clip-path="url(#terminal-3309028997-line-4)">&#160;PDU&#160;&#160;&#160;&#160;&#160;&#160;&#160;&#160;&#160;&#160;&#160;&#160;&#160;&#160;&#160;</text><text class="terminal-3309028997-r1" x="1366.4" y="117.6" textLength="12.2" clip-path="url(#terminal-3309028997-line-4)">
</text><text class="terminal-3309028997-r2" x="0" y="142" textLength="244" clip-path="url(#terminal-3309028997-line-5)">&#160;tenant&#160;&#160;&#160;&#160;&#160;&#160;&#160;&#160;&#160;&#160;&#160;&#160;&#160;</text><text class="terminal-3309028997-r1" x="1366.4" y="142" textLength="12.2" clip-path="url(#terminal-3309028997-line-5)">
</text><text class="terminal-3309028997-r2" x="0" y="166.4" textLength="244" clip-path="url(#terminal-3309028997-line-6)">&#160;platform&#160;&#160;&#160;&#160;&#160;&#160;&#160;&#160;&#160;&#160;&#160;</text><text class="terminal-3309028997-r1" x="1366.4" y="166.4" textLength="12.2" clip-path="url(#terminal-3309028997-line-6)">
</text><text class="terminal-3309028997-r2" x="0" y="190.8" textLength="244" clip-path="url(#terminal-3309028997-line-7)">&#160;serial&#160;&#160;&#160;&#160;&#160;&#160;&#160;&#160;&#160;&#160;&#160;&#160;&#160;</text><text class="terminal-3309028997-r2" x="244" y="190.8" textLength="231.8" clip-path="url(#terminal-3309028997-line-7)">&#160;6457-2371&#160;&#160;&#160;&#160;&#160;&#160;&#160;&#160;&#160;</text><text class="terminal-3309028997-r1" x="1366.4" y="190.8" textLength="12.2" clip-path="url(#terminal-3309028997-line-7)">
</text><text class="terminal-3309028997-r2" x="0" y="215.2" textLength="244" clip-path="url(#terminal-3309028997-line-8)">&#160;asset_tag&#160;&#160;&#160;&#160;&#160;&#160;&#160;&#160;&#160;&#160;</text><text class="terminal-3309028997-r1" x="1366.4" y="215.2" textLength="12.2" clip-path="url(#terminal-3309028997-line-8)">
</text><text class="terminal-3309028997-r2" x="0" y="239.6" textLength="244" clip-path="url(#terminal-3309028997-line-9)">&#160;site&#160;&#160;&#160;&#160;&#160;&#160;&#160;&#160;&#160;&#160;&#160;&#160;&#160;&#160;&#160;</text><text class="terminal-3309028997-r2" x="244" y="239.6" textLength="231.8" clip-path="url(#terminal-3309028997-line-9)">&#160;DM-Akron&#160;&#160;&#160;&#160;&#160;&#160;&#160;&#160;&#160;&#160;</text><text class="terminal-3309028997-r1" x="1366.4" y="239.6" textLength="12.2" clip-path="url(#terminal-3309028997-line-9)">
</text><text class="terminal-3309028997-r2" x="0" y="264" textLength="244" clip-path="url(#terminal-3309028997-line-10)">&#160;location&#160;&#160;&#160;&#160;&#160;&#160;&#160;&#160;&#160;&#160;&#160;</text><text class="terminal-3309028997-r1" x="1366.4" y="264" textLength="12.2" clip-path="url(#terminal-3309028997-line-10)">
</text><text class="terminal-3309028997-r2" x="0" y="288.4" textLength="244" clip-path="url(#terminal-3309028997-line-11)">&#160;rack&#160;&#160;&#160;&#160;&#160;&#160;&#160;&#160;&#160;&#160;&#160;&#160;&#160;&#160;&#160;</text><text class="terminal-3309028997-r1" x="1366.4" y="288.4" textLength="12.2" clip-path="url(#terminal-3309028997-line-11)">
</text><text class="terminal-3309028997-r2" x="0" y="312.8" textLength="244" clip-path="url(#terminal-3309028997-line-12)">&#160;position&#160;&#160;&#160;&#160;&#160;&#160;&#160;&#160;&#160;&#160;&#160;</text><text class="terminal-3309028997-r1" x="1366.4" y="312.8" textLength="12.2" clip-path="url(#terminal-3309028997-line-12)">
</text><text class="terminal-3309028997-r2" x="0" y="337.2" textLength="244" clip-path="url(#terminal-3309028997-line-13)">&#160;face&#160;&#160;&#160;&#160;&#160;&#160;&#160;&#160;&#160;&#160;&#160;&#160;&#160;&#160;&#160;</text><text class="terminal-3309028997-r1" x="1366.4" y="337.2" textLength="12.2" clip-path="url(#terminal-3309028997-line-13)">
</text><text class="terminal-3309028997-r2" x="0" y="361.6" textLength="244" clip-path="url(#terminal-3309028997-line-14)">&#160;latitude&#160;&#160;&#160;&#160;&#160;&#160;&#160;&#160;&#160;&#160;&#160;</text><text class="terminal-3309028997-r1" x="1366.4" y="361.6" textLength="12.2" clip-path="url(#terminal-3309028997-line-14)">
</text><text class="terminal-3309028997-r2" x="0" y="386" textLength="244" clip-path="url(#terminal-3309028997-line-15)">&#160;longitude&#160;&#160;&#160;&#160;&#160;&#160;&#160;&#160;&#160;&#160;</text><text class="terminal-3309028997-r1" x="1366.4" y="386" textLength="12.2" clip-path="url(#terminal-3309028997-line-15)">
</text><text class="terminal-3309028997-r2" x="0" y="410.4" textLength="244" clip-path="url(#terminal-3309028997-line-16)">&#160;status&#160;&#160;&#160;&#160;&#160;&#160;&#160;&#160;&#160;&#160;&#160;&#160;&#160;</text><text class="terminal-3309028997-r1" x="1366.4" y="410.4" textLength="12.2" clip-path="url(#terminal-3309028997-line-16)">
</text><text class="terminal-3309028997-r2" x="0" y="434.8" textLength="244" clip-path="url(#terminal-3309028997-line-17)">&#160;airflow&#160;&#160;&#160;&#160;&#160;&#160;&#160;&#160;&#160;&#160;&#160;&#160;</text><text class="terminal-3309028997-r1" x="1366.4" y="434.8" textLength="12.2" clip-path="url(#terminal-3309028997-line-17)">
</text><text class="terminal-3309028997-r2" x="0" y="459.2" textLength="244" clip-path="url(#terminal-3309028997-line-18)">&#160;primary_ip4&#160;&#160;&#160;&#160;&#160;&#160;&#160;&#160;</text><text class="terminal-3309028997-r1" x="1366.4" y="459.2" textLength="12.2" clip-path="url(#terminal-3309028997-line-18)">
</text><text class="terminal-3309028997-r2" x="0" y="483.6" textLength="244" clip-path="url(#terminal-3309028997-line-19)">&#160;primary_ip6&#160;&#160;&#160;&#160;&#160;&#160;&#160;&#160;</text><text class="terminal-3309028997-r1" x="1366.4" y="483.6" textLength="12.2" clip-path="url(#terminal-3309028997-line-19)">
</text><text class="terminal-3309028997-r2" x="0" y="508" textLength="244" clip-path="url(#terminal-3309028997-line-20)">&#160;oob_ip&#160;&#160;&#160;&#160;&#160;&#160;&#160;&#160;&#160;&#160;&#160;&#160;&#160;</text><text class="terminal-3309028997-r1" x="1366.4" y="508" textLength="12.2" clip-path="url(#terminal-3309028997-line-20)">
</text><text class="terminal-3309028997-r2" x="0" y="532.4" textLength="244" clip-path="url(#terminal-3309028997-line-21)">&#160;cluster&#160;&#160;&#160;&#160;&#160;&#160;&#160;&#160;&#160;&#160;&#160;&#160;</text><text class="terminal-3309028997-r1" x="1366.4" y="532.4" textLength="12.2" clip-path="url(#terminal-3309028997-line-21)">
</text><text class="terminal-3309028997-r2" x="0" y="556.8" textLength="244" clip-path="url(#terminal-3309028997-line-22)">&#160;virtual_chassis&#160;&#160;&#160;&#160;</text><text class="terminal-3309028997-r1" x="1366.4" y="556.8" textLength="12.2" clip-path="url(#terminal-3309028997-line-22)">
</text><text class="terminal-3309028997-r2" x="0" y="581.2" textLength="244" clip-path="url(#terminal-3309028997-line-23)">&#160;vc_position&#160;&#160;&#160;&#160;&#160;&#160;&#160;&#160;</text><text class="terminal-3309028997-r1" x="1366.4" y="581.2" textLength="12.2" clip-path="url(#terminal-3309028997-line-23)">
</text><text class="terminal-3309028997-r2" x="0" y="605.6" textLength="244" clip-path="url(#terminal-3309028997-line-24)">&#160;vc_priority&#160;&#160;&#160;&#160;&#160;&#160;&#160;&#160;</text><text class="terminal-3309028997-r6" x="1342" y="605.6" textLength="24.4" clip-path="url(#terminal-3309028997-line-24)">▁▁</text><text class="terminal-3309028997-r1" x="1366.4" y="605.6" textLength="12.2" clip-path="url(#terminal-3309028997-line-24)">
</text><text class="terminal-3309028997-r2" x="0" y="630" textLength="244" clip-path="url(#terminal-3309028997-line-25)">&#160;description&#160;&#160;&#160;&#160;&#160;&#160;&#160;&#160;</text><text class="terminal-3309028997-r1" x="1366.4" y="630" textLength="12.2" clip-path="url(#terminal-3309028997-line-25)">
</text><text class="terminal-3309028997-r2" x="0" y="654.4" textLength="244" clip-path="url(#terminal-3309028997-line-26)">&#160;owner&#160;&#160;&#160;&#160;&#160;&#160;&#160;&#160;&#160;&#160;&#160;&#160;&#160;&#160;</text><text class="terminal-3309028997-r1" x="1366.4" y="654.4" textLength="12.2" clip-path="url(#terminal-3309028997-line-26)">
</text><text class="terminal-3309028997-r2" x="0" y="678.8" textLength="244" clip-path="url(#terminal-3309028997-line-27)">&#160;comments&#160;&#160;&#160;&#160;&#160;&#160;&#160;&#160;&#160;&#160;&#160;</text><text class="terminal-3309028997-r1" x="1366.4" y="678.8" textLength="12.2" clip-path="url(#terminal-3309028997-line-27)">
</text><text class="terminal-3309028997-r2" x="0" y="703.2" textLength="244" clip-path="url(#terminal-3309028997-line-28)">&#160;config_template&#160;&#160;&#160;&#160;</text><text class="terminal-3309028997-r1" x="1366.4" y="703.2" textLength="12.2" clip-path="url(#terminal-3309028997-line-28)">
</text><text class="terminal-3309028997-r2" x="12.2" y="727.6" textLength="73.2" clip-path="url(#terminal-3309028997-line-29)">cables</text><text class="terminal-3309028997-r7" x="109.8" y="727.6" textLength="158.6" clip-path="url(#terminal-3309028997-line-29)">console-ports</text><text class="terminal-3309028997-r7" x="292.8" y="727.6" textLength="244" clip-path="url(#terminal-3309028997-line-29)">console-server-ports</text><text class="terminal-3309028997-r7" x="561.2" y="727.6" textLength="134.2" clip-path="url(#terminal-3309028997-line-29)">device-bays</text><text class="terminal-3309028997-r7" x="719.8" y="727.6" textLength="134.2" clip-path="url(#terminal-3309028997-line-29)">front-ports</text><text class="terminal-3309028997-r7" x="878.4" y="727.6" textLength="122" clip-path="url(#terminal-3309028997-line-29)">interfaces</text><text class="terminal-3309028997-r7" x="1024.8" y="727.6" textLength="183" clip-path="url(#terminal-3309028997-line-29)">inventory-items</text><text class="terminal-3309028997-r7" x="1232.2" y="727.6" textLength="134.2" clip-path="url(#terminal-3309028997-line-29)">mac-address</text><text class="terminal-3309028997-r1" x="1366.4" y="727.6" textLength="12.2" clip-path="url(#terminal-3309028997-line-29)">
</text><text class="terminal-3309028997-r8" x="0" y="752" textLength="12.2" clip-path="url(#terminal-3309028997-line-30)">╸</text><text class="terminal-3309028997-r9" x="12.2" y="752" textLength="73.2" clip-path="url(#terminal-3309028997-line-30)">━━━━━━</text><text class="terminal-3309028997-r8" x="85.4" y="752" textLength="12.2" clip-path="url(#terminal-3309028997-line-30)">╺</text><text class="terminal-3309028997-r8" x="97.6" y="752" textLength="1268.8" clip-path="url(#terminal-3309028997-line-30)">━━━━━━━━━━━━━━━━━━━━━━━━━━━━━━━━━━━━━━━━━━━━━━━━━━━━━━━━━━━━━━━━━━━━━━━━━━━━━━━━━━━━━━━━━━━━━━━━━━━━━━━━</text><text class="terminal-3309028997-r1" x="1366.4" y="752" textLength="12.2" clip-path="url(#terminal-3309028997-line-30)">
</text><text class="terminal-3309028997-r10" x="0" y="776.4" textLength="61" clip-path="url(#terminal-3309028997-line-31)">&#160;tab&#160;</text><text class="terminal-3309028997-r2" x="61" y="776.4" textLength="109.8" clip-path="url(#terminal-3309028997-line-31)">Next&#160;tab&#160;</text><text class="terminal-3309028997-r10" x="170.8" y="776.4" textLength="134.2" clip-path="url(#terminal-3309028997-line-31)">&#160;shift+tab&#160;</text><text class="terminal-3309028997-r2" x="305" y="776.4" textLength="109.8" clip-path="url(#terminal-3309028997-line-31)">Prev&#160;tab&#160;</text><text class="terminal-3309028997-r10" x="414.8" y="776.4" textLength="36.6" clip-path="url(#terminal-3309028997-line-31)">&#160;q&#160;</text><text class="terminal-3309028997-r2" x="451.4" y="776.4" textLength="61" clip-path="url(#terminal-3309028997-line-31)">Quit&#160;</text><text class="terminal-3309028997-r10" x="512.4" y="776.4" textLength="36.6" clip-path="url(#terminal-3309028997-line-31)">&#160;?&#160;</text><text class="terminal-3309028997-r2" x="549" y="776.4" textLength="61" clip-path="url(#terminal-3309028997-line-31)">Help&#160;</text><text class="terminal-3309028997-r10" x="610" y="776.4" textLength="48.8" clip-path="url(#terminal-3309028997-line-31)">&#160;^p&#160;</text><text class="terminal-3309028997-r2" x="658.8" y="776.4" textLength="170.8" clip-path="url(#terminal-3309028997-line-31)">Find&#160;resource&#160;</text><text class="terminal-3309028997-r10" x="829.6" y="776.4" textLength="48.8" clip-path="url(#terminal-3309028997-line-31)">&#160;^f&#160;</text><text class="terminal-3309028997-r2" x="878.4" y="776.4" textLength="85.4" clip-path="url(#terminal-3309028997-line-31)">Search&#160;</text><text class="terminal-3309028997-r10" x="963.8" y="776.4" textLength="61" clip-path="url(#terminal-3309028997-line-31)">&#160;esc&#160;</text><text class="terminal-3309028997-r2" x="1024.8" y="776.4" textLength="61" clip-path="url(#terminal-3309028997-line-31)">Back&#160;</text><text class="terminal-3309028997-r10" x="1085.8" y="776.4" textLength="36.6" clip-path="url(#terminal-3309028997-line-31)">&#160;e&#160;</text><text class="terminal-3309028997-r2" x="1122.4" y="776.4" textLength="134.2" clip-path="url(#terminal-3309028997-line-31)">Edit&#160;field&#160;</text><text class="terminal-3309028997-r10" x="1256.6" y="776.4" textLength="36.6" clip-path="url(#terminal-3309028997-line-31)">&#160;s&#160;</text><text class="terminal-3309028997-r2" x="1293.2" y="776.4" textLength="73.2" clip-path="url(#terminal-3309028997-line-31)">Save&#160;c</text>
    </g>
    </g>
</svg>
