<svg class="rich-terminal" viewBox="0 0 1385 830.8" xmlns="http://www.w3.org/2000/svg">
    <!-- Generated with Rich https://www.textualize.io -->
    <style>

    @font-face {
        font-family: "Fira Code";
        src: local("FiraCode-Regular"),
                url("https://cdnjs.cloudflare.com/ajax/libs/firacode/6.2.0/woff2/FiraCode-Regular.woff2") format("woff2"),
                url("https://cdnjs.cloudflare.com/ajax/libs/firacode/6.2.0/woff/FiraCode-Regular.woff") format("woff");
        font-style: normal;
        font-weight: 400;
    }
    @font-face {
        font-family: "Fira Code";
        src: local("FiraCode-Bold"),
                url("https://cdnjs.cloudflare.com/ajax/libs/firacode/6.2.0/woff2/FiraCode-Bold.woff2") format("woff2"),
                url("https://cdnjs.cloudflare.com/ajax/libs/firacode/6.2.0/woff/FiraCode-Bold.woff") format("woff");
        font-style: bold;
        font-weight: 700;
    }

    .terminal-1500386332-matrix {
        font-family: Fira Code, monospace;
        font-size: 20px;
        line-height: 24.4px;
        font-variant-east-asian: full-width;
    }

    .terminal-1500386332-title {
        font-size: 18px;
        font-weight: bold;
        font-family: arial;
    }

    .terminal-1500386332-r1 { fill: #c5c8c6 }
.terminal-1500386332-r2 { fill: #e0e0e0 }
.terminal-1500386332-r3 { fill: #e0e0e0;font-weight: bold }
.terminal-1500386332-r4 { fill: #ddedf9;font-weight: bold }
.terminal-1500386332-r5 { fill: #ffa62b;font-weight: bold }
    </style>

    <defs>
    <clipPath id="terminal-1500386332-clip-terminal">
      <rect x="0" y="0" width="1365.3999999999999" height="779.8" />
    </clipPath>
    <clipPath id="terminal-1500386332-line-0">
    <rect x="0" y="1.5" width="1366.4" height="24.65"/>
            </clipPath>
<clipPath id="terminal-1500386332-line-1">
    <rect x="0" y="25.9" width="1366.4" height="24.65"/>
            </clipPath>
<clipPath id="terminal-1500386332-line-2">
    <rect x="0" y="50.3" width="1366.4" height="24.65"/>
            </clipPath>
<clipPath id="terminal-1500386332-line-3">
    <rect x="0" y="74.7" width="1366.4" height="24.65"/>
            </clipPath>
<clipPath id="terminal-1500386332-line-4">
    <rect x="0" y="99.1" width="1366.4" height="24.65"/>
            </clipPath>
<clipPath id="terminal-1500386332-line-5">
    <rect x="0" y="123.5" width="1366.4" height="24.65"/>
            </clipPath>
<clipPath id="terminal-1500386332-line-6">
    <rect x="0" y="147.9" width="1366.4" height="24.65"/>
            </clipPath>
<clipPath id="terminal-1500386332-line-7">
    <rect x="0" y="172.3" width="1366.4" height="24.65"/>
            </clipPath>
<clipPath id="terminal-1500386332-line-8">
    <rect x="0" y="196.7" width="1366.4" height="24.65"/>
            </clipPath>
<clipPath id="terminal-1500386332-line-9">
    <rect x="0" y="221.1" width="1366.4" height="24.65"/>
            </clipPath>
<clipPath id="terminal-1500386332-line-10">
    <rect x="0" y="245.5" width="1366.4" height="24.65"/>
            </clipPath>
<clipPath id="terminal-1500386332-line-11">
    <rect x="0" y="269.9" width="1366.4" height="24.65"/>
            </clipPath>
<clipPath id="terminal-1500386332-line-12">
    <rect x="0" y="294.3" width="1366.4" height="24.65"/>
            </clipPath>
<clipPath id="terminal-1500386332-line-13">
    <rect x="0" y="318.7" width="1366.4" height="24.65"/>
            </clipPath>
<clipPath id="terminal-1500386332-line-14">
    <rect x="0" y="343.1" width="1366.4" height="24.65"/>
            </clipPath>
<clipPath id="terminal-1500386332-line-15">
    <rect x="0" y="367.5" width="1366.4" height="24.65"/>
            </clipPath>
<clipPath id="terminal-1500386332-line-16">
    <rect x="0" y="391.9" width="1366.4" height="24.65"/>
            </clipPath>
<clipPath id="terminal-1500386332-line-17">
    <rect x="0" y="416.3" width="1366.4" height="24.65"/>
            </clipPath>
<clipPath id="terminal-1500386332-line-18">
    <rect x="0" y="440.7" width="1366.4" height="24.65"/>
            </clipPath>
<clipPath id="terminal-1500386332-line-19">
    <rect x="0" y="465.1" width="1366.4" height="24.65"/>
            </clipPath>
<clipPath id="terminal-1500386332-line-20">
    <rect x="0" y="489.5" width="1366.4" height="24.65"/>
            </clipPath>
<clipPath id="terminal-1500386332-line-21">
    <rect x="0" y="513.9" width="1366.4" height="24.65"/>
            </clipPath>
<clipPath id="terminal-1500386332-line-22">
    <rect x="0" y="538.3" width="1366.4" height="24.65"/>
            </clipPath>
<clipPath id="terminal-1500386332-line-23">
    <rect x="0" y="562.7" width="1366.4" height="24.65"/>
            </clipPath>
<clipPath id="terminal-1500386332-line-24">
    <rect x="0" y="587.1" width="1366.4" height="24.65"/>
            </clipPath>
<clipPath id="terminal-1500386332-line-25">
    <rect x="0" y="611.5" width="1366.4" height="24.65"/>
            </clipPath>
<clipPath id="terminal-1500386332-line-26">
    <rect x="0" y="635.9" width="1366.4" height="24.65"/>
            </clipPath>
<clipPath id="terminal-1500386332-line-27">
    <rect x="0" y="660.3" width="1366.4" height="24.65"/>
            </clipPath>
<clipPath id="terminal-1500386332-line-28">
    <rect x="0" y="684.7" width="1366.4" height="24.65"/>
            </clipPath>
<clipPath id="terminal-1500386332-line-29">
    <rect x="0" y="709.1" width="1366.4" height="24.65"/>
            </clipPath>
<clipPath id="terminal-1500386332-line-30">
    <rect x="0" y="733.5" width="1366.4" height="24.65"/>
            </clipPath>
    </defs>

    <rect fill="#292929" stroke="rgba(255,255,255,0.35)" stroke-width="1" x="1" y="1" width="1383" height="828.8" rx="8"/><text class="terminal-1500386332-title" fill="#c5c8c6" text-anchor="middle" x="691" y="27">nsc&#160;tui</text>
            <g transform="translate(26,22)">
            <circle cx="0" cy="0" r="7" fill="#ff5f57"/>
            <circle cx="22" cy="0" r="7" fill="#febc2e"/>
            <circle cx="44" cy="0" r="7" fill="#28c840"/>
            </g>

    <g transform="translate(9, 41)" clip-path="url(#terminal-1500386332-clip-terminal)">
    <rect fill="#242f38" x="0" y="1.5" width="12.2" height="24.65" shape-rendering="crispEdges"/><rect fill="#242f38" x="12.2" y="1.5" width="12.2" height="24.65" shape-rendering="crispEdges"/><rect fill="#242f38" x="24.4" y="1.5" width="61" height="24.65" shape-rendering="crispEdges"/><rect fill="#242f38" x="85.4" y="1.5" width="12.2" height="24.65" shape-rendering="crispEdges"/><rect fill="#242f38" x="97.6" y="1.5" width="488" height="24.65" shape-rendering="crispEdges"/><rect fill="#242f38" x="585.6" y="1.5" width="170.8" height="24.65" shape-rendering="crispEdges"/><rect fill="#242f38" x="756.4" y="1.5" width="488" height="24.65" shape-rendering="crispEdges"/><rect fill="#242f38" x="1244.4" y="1.5" width="12.2" height="24.65" shape-rendering="crispEdges"/><rect fill="#242f38" x="1256.6" y="1.5" width="0" height="24.65" shape-rendering="crispEdges"/><rect fill="#242f38" x="1256.6" y="1.5" width="97.6" height="24.65" shape-rendering="crispEdges"/><rect fill="#242f38" x="1354.2" y="1.5" width="12.2" height="24.65" shape-rendering="crispEdges"/><rect fill="#2d3740" x="0" y="25.9" width="36.6" height="24.65" shape-rendering="crispEdges"/><rect fill="#2d3740" x="36.6" y="25.9" width="61" height="24.65" shape-rendering="crispEdges"/><rect fill="#2d3740" x="97.6" y="25.9" width="256.2" height="24.65" shape-rendering="crispEdges"/><rect fill="#2d3740" x="353.8" y="25.9" width="256.2" height="24.65" shape-rendering="crispEdges"/><rect fill="#2d3740" x="610" y="25.9" width="61" height="24.65" shape-rendering="crispEdges"/><rect fill="#2d3740" x="671" y="25.9" width="158.6" height="24.65" shape-rendering="crispEdges"/><rect fill="#2d3740" x="829.6" y="25.9" width="134.2" height="24.65" shape-rendering="crispEdges"/><rect fill="#2d3740" x="963.8" y="25.9" width="402.6" height="24.65" shape-rendering="crispEdges"/><rect fill="#0178d4" x="0" y="50.3" width="36.6" height="24.65" shape-rendering="crispEdges"/><rect fill="#0178d4" x="36.6" y="50.3" width="61" height="24.65" shape-rendering="crispEdges"/><rect fill="#0178d4" x="97.6" y="50.3" width="256.2" height="24.65" shape-rendering="crispEdges"/><rect fill="#0178d4" x="353.8" y="50.3" width="256.2" height="24.65" shape-rendering="crispEdges"/><rect fill="#0178d4" x="610" y="50.3" width="61" height="24.65" shape-rendering="crispEdges"/><rect fill="#0178d4" x="671" y="50.3" width="158.6" height="24.65" shape-rendering="crispEdges"/><rect fill="#0178d4" x="829.6" y="50.3" width="134.2" height="24.65" shape-rendering="crispEdges"/><rect fill="#0178d4" x="963.8" y="50.3" width="402.6" height="24.65" shape-rendering="crispEdges"/><rect fill="#272727" x="0" y="74.7" width="36.6" height="24.65" shape-rendering="crispEdges"/><rect fill="#272727" x="36.6" y="74.7" width="61" height="24.65" shape-rendering="crispEdges"/><rect fill="#272727" x="97.6" y="74.7" width="256.2" height="24.65" shape-rendering="crispEdges"/><rect fill="#272727" x="353.8" y="74.7" width="256.2" height="24.65" shape-rendering="crispEdges"/><rect fill="#272727" x="610" y="74.7" width="61" height="24.65" shape-rendering="crispEdges"/><rect fill="#272727" x="671" y="74.7" width="158.6" height="24.65" shape-rendering="crispEdges"/><rect fill="#272727" x="829.6" y="74.7" width="134.2" height="24.65" shape-rendering="crispEdges"/><rect fill="#272727" x="963.8" y="74.7" width="402.6" height="24.65" shape-rendering="crispEdges"/><rect fill="#272727" x="0" y="99.1" width="36.6" height="24.65" shape-rendering="crispEdges"/><rect fill="#272727" x="36.6" y="99.1" width="61" height="24.65" shape-rendering="crispEdges"/><rect fill="#272727" x="97.6" y="99.1" width="256.2" height="24.65" shape-rendering="crispEdges"/><rect fill="#272727" x="353.8" y="99.1" width="256.2" height="24.65" shape-rendering="crispEdges"/><rect fill="#272727" x="610" y="99.1" width="61" height="24.65" shape-rendering="crispEdges"/><rect fill="#272727" x="671" y="99.1" width="158.6" height="24.65" shape-rendering="crispEdges"/><rect fill="#272727" x="829.6" y="99.1" width="134.2" height="24.65" shape-rendering="crispEdges"/><rect fill="#272727" x="963.8" y="99.1" width="402.6" height="24.65" shape-rendering="crispEdges"/><rect fill="#272727" x="0" y="123.5" width="36.6" height="24.65" shape-rendering="crispEdges"/><rect fill="#272727" x="36.6" y="123.5" width="61" height="24.65" shape-rendering="crispEdges"/><rect fill="#272727" x="97.6" y="123.5" width="256.2" height="24.65" shape-rendering="crispEdges"/><rect fill="#272727" x="353.8" y="123.5" width="256.2" height="24.65" shape-rendering="crispEdges"/><rect fill="#272727" x="610" y="123.5" width="61" height="24.65" shape-rendering="crispEdges"/><rect fill="#272727" x="671" y="123.5" width="158.6" height="24.65" shape-rendering="crispEdges"/><rect fill="#272727" x="829.6" y="123.5" width="134.2" height="24.65" shape-rendering="crispEdges"/><rect fill="#272727" x="963.8" y="123.5" width="402.6" height="24.65" shape-rendering="crispEdges"/><rect fill="#272727" x="0" y="147.9" width="1366.4" height="24.65" shape-rendering="crispEdges"/><rect fill="#272727" x="0" y="172.3" width="1366.4" height="24.65" shape-rendering="crispEdges"/><rect fill="#272727" x="0" y="196.7" width="1366.4" height="24.65" shape-rendering="crispEdges"/><rect fill="#272727" x="0" y="221.1" width="1366.4" height="24.65" shape-rendering="crispEdges"/><rect fill="#272727" x="0" y="245.5" width="1366.4" height="24.65" shape-rendering="crispEdges"/><rect fill="#272727" x="0" y="269.9" width="1366.4" height="24.65" shape-rendering="crispEdges"/><rect fill="#272727" x="0" y="294.3" width="1366.4" height="24.65" shape-rendering="crispEdges"/><rect fill="#272727" x="0" y="318.7" width="1366.4" height="24.65" shape-rendering="crispEdges"/><rect fill="#272727" x="0" y="343.1" width="1366.4" height="24.65" shape-rendering="crispEdges"/><rect fill="#272727" x="0" y="367.5" width="1366.4" height="24.65" shape-rendering="crispEdges"/><rect fill="#272727" x="0" y="391.9" width="1366.4" height="24.65" shape-rendering="crispEdges"/><rect fill="#272727" x="0" y="416.3" width="1366.4" height="24.65" shape-rendering="crispEdges"/><rect fill="#272727" x="0" y="440.7" width="1366.4" height="24.65" shape-rendering="crispEdges"/><rect fill="#272727" x="0" y="465.1" width="1366.4" height="24.65" shape-rendering="crispEdges"/><rect fill="#272727" x="0" y="489.5" width="1366.4" height="24.65" shape-rendering="crispEdges"/><rect fill="#272727" x="0" y="513.9" width="1366.4" height="24.65" shape-rendering="crispEdges"/><rect fill="#272727" x="0" y="538.3" width="1366.4" height="24.65" shape-rendering="crispEdges"/><rect fill="#272727" x="0" y="562.7" width="1366.4" height="24.65" shape-rendering="crispEdges"/><rect fill="#272727" x="0" y="587.1" width="1366.4" height="24.65" shape-rendering="crispEdges"/><rect fill="#272727" x="0" y="611.5" width="1366.4" height="24.65" shape-rendering="crispEdges"/><rect fill="#272727" x="0" y="635.9" width="1366.4" height="24.65" shape-rendering="crispEdges"/><rect fill="#272727" x="0" y="660.3" width="1366.4" height="24.65" shape-rendering="crispEdges"/><rect fill="#272727" x="0" y="684.7" width="1366.4" height="24.65" shape-rendering="crispEdges"/><rect fill="#272727" x="0" y="709.1" width="1366.4" height="24.65" shape-rendering="crispEdges"/><rect fill="#272727" x="0" y="733.5" width="1366.4" height="24.65" shape-rendering="crispEdges"/><rect fill="#242f38" x="0" y="757.9" width="36.6" height="24.65" shape-rendering="crispEdges"/><rect fill="#242f38" x="36.6" y="757.9" width="61" height="24.65" shape-rendering="crispEdges"/><rect fill="#242f38" x="97.6" y="757.9" width="36.6" height="24.65" shape-rendering="crispEdges"/><rect fill="#242f38" x="134.2" y="757.9" width="61" height="24.65" shape-rendering="crispEdges"/><rect fill="#242f38" x="195.2" y="757.9" width="48.8" height="24.65" shape-rendering="crispEdges"/><rect fill="#242f38" x="244" y="757.9" width="170.8" height="24.65" shape-rendering="crispEdges"/><rect fill="#242f38" x="414.8" y="757.9" width="48.8" height="24.65" shape-rendering="crispEdges"/><rect fill="#242f38" x="463.6" y="757.9" width="85.4" height="24.65" shape-rendering="crispEdges"/><rect fill="#242f38" x="549" y="757.9" width="61" height="24.65" shape-rendering="crispEdges"/><rect fill="#242f38" x="610" y="757.9" width="61" height="24.65" shape-rendering="crispEdges"/><rect fill="#242f38" x="671" y="757.9" width="36.6" height="24.65" shape-rendering="crispEdges"/><rect fill="#242f38" x="707.6" y="757.9" width="61" height="24.65" shape-rendering="crispEdges"/><rect fill="#242f38" x="768.6" y="757.9" width="36.6" height="24.65" shape-rendering="crispEdges"/><rect fill="#242f38" x="805.2" y="757.9" width="36.6" height="24.65" shape-rendering="crispEdges"/><rect fill="#242f38" x="841.8" y="757.9" width="36.6" height="24.65" shape-rendering="crispEdges"/><rect fill="#242f38" x="878.4" y="757.9" width="48.8" height="24.65" shape-rendering="crispEdges"/><rect fill="#242f38" x="927.2" y="757.9" width="36.6" height="24.65" shape-rendering="crispEdges"/><rect fill="#242f38" x="963.8" y="757.9" width="85.4" height="24.65" shape-rendering="crispEdges"/><rect fill="#242f38" x="1049.2" y="757.9" width="36.6" height="24.65" shape-rendering="crispEdges"/><rect fill="#242f38" x="1085.8" y="757.9" width="85.4" height="24.65" shape-rendering="crispEdges"/><rect fill="#242f38" x="1171.2" y="757.9" width="36.6" height="24.65" shape-rendering="crispEdges"/><rect fill="#242f38" x="1207.8" y="757.9" width="97.6" height="24.65" shape-rendering="crispEdges"/><rect fill="#242f38" x="1305.4" y="757.9" width="36.6" height="24.65" shape-rendering="crispEdges"/><rect fill="#242f38" x="1342" y="757.9" width="24.4" height="24.65" shape-rendering="crispEdges"/>
    <g class="terminal-1500386332-matrix">
    <text class="terminal-1500386332-r2" x="12.2" y="20" textLength="12.2" clip-path="url(#terminal-1500386332-line-0)">⭘</text><text class="terminal-1500386332-r2" x="585.6" y="20" textLength="170.8" clip-path="url(#terminal-1500386332-line-0)">dcim&#160;/&#160;devices</text><text class="terminal-1500386332-r1" x="1366.4" y="20" textLength="12.2" clip-path="url(#terminal-1500386332-line-0)">
</text><text class="terminal-1500386332-r3" x="36.6" y="44.4" textLength="61" clip-path="url(#terminal-1500386332-line-1)">&#160;id&#160;&#160;</text><text class="terminal-1500386332-r3" x="97.6" y="44.4" textLength="256.2" clip-path="url(#terminal-1500386332-line-1)">&#160;name&#160;&#160;&#160;&#160;&#160;&#160;&#160;&#160;&#160;&#160;&#160;&#160;&#160;&#160;&#160;&#160;</text><text class="terminal-1500386332-r3" x="353.8" y="44.4" textLength="256.2" clip-path="url(#terminal-1500386332-line-1)">&#160;display&#160;&#160;&#160;&#160;&#160;&#160;&#160;&#160;&#160;&#160;&#160;&#160;&#160;</text><text class="terminal-1500386332-r3" x="610" y="44.4" textLength="61" clip-path="url(#terminal-1500386332-line-1)">&#160;url&#160;</text><text class="terminal-1500386332-r3" x="671" y="44.4" textLength="158.6" clip-path="url(#terminal-1500386332-line-1)">&#160;display_url&#160;</text><text class="terminal-1500386332-r3" x="829.6" y="44.4" textLength="134.2" clip-path="url(#terminal-1500386332-line-1)">&#160;serial&#160;&#160;&#160;&#160;</text><text class="terminal-1500386332-r1" x="1366.4" y="44.4" textLength="12.2" clip-path="url(#terminal-1500386332-line-1)">
</text><text class="terminal-1500386332-r4" x="36.6" y="68.8" textLength="61" clip-path="url(#terminal-1500386332-line-2)">&#160;111&#160;</text><text class="terminal-1500386332-r4" x="97.6" y="68.8" textLength="256.2" clip-path="url(#terminal-1500386332-line-2)">&#160;dmi01-akron-pdu01&#160;&#160;&#160;</text><text class="terminal-1500386332-r4" x="353.8" y="68.8" textLength="256.2" clip-path="url(#terminal-1500386332-line-2)">&#160;dmi01-akron-pdu01&#160;&#160;&#160;</text><text class="terminal-1500386332-r4" x="829.6" y="68.8" textLength="134.2" clip-path="url(#terminal-1500386332-line-2)">&#160;6457-2371&#160;</text><text class="terminal-1500386332-r1" x="1366.4" y="68.8" textLength="12.2" clip-path="url(#terminal-1500386332-line-2)">
</text><text class="terminal-1500386332-r2" x="36.6" y="93.2" textLength="61" clip-path="url(#terminal-1500386332-line-3)">&#160;112&#160;</text><text class="terminal-1500386332-r2" x="97.6" y="93.2" textLength="256.2" clip-path="url(#terminal-1500386332-line-3)">&#160;dmi01-akron-sw01&#160;&#160;&#160;&#160;</text><text class="terminal-1500386332-r2" x="353.8" y="93.2" textLength="256.2" clip-path="url(#terminal-1500386332-line-3)">&#160;dmi01-akron-sw01&#160;&#160;&#160;&#160;</text><text class="terminal-1500386332-r2" x="829.6" y="93.2" textLength="134.2" clip-path="url(#terminal-1500386332-line-3)">&#160;FToC194&#160;&#160;&#160;</text><text class="terminal-1500386332-r1" x="1366.4" y="93.2" textLength="12.2" clip-path="url(#terminal-1500386332-line-3)">
</text><text class="terminal-1500386332-r2" x="36.6" y="117.6" textLength="61" clip-path="url(#terminal-1500386332-line-4)">&#160;113&#160;</text><text class="terminal-1500386332-r2" x="97.6" y="117.6" textLength="256.2" clip-path="url(#terminal-1500386332-line-4)">&#160;dmi01-akron-rtr01&#160;&#160;&#160;</text><text class="terminal-1500386332-r2" x="353.8" y="117.6" textLength="256.2" clip-path="url(#terminal-1500386332-line-4)">&#160;dmi01-akron-rtr01&#160;&#160;&#160;</text><text class="terminal-1500386332-r2" x="829.6" y="117.6" textLength="134.2" clip-path="url(#terminal-1500386332-line-4)">&#160;JPAX91&#160;&#160;&#160;&#160;</text><text class="terminal-1500386332-r1" x="1366.4" y="117.6" textLength="12.2" clip-path="url(#terminal-1500386332-line-4)">
</text><text class="terminal-1500386332-r2" x="36.6" y="142" textLength="61" clip-path="url(#terminal-1500386332-line-5)">&#160;114&#160;</text><text class="terminal-1500386332-r2" x="97.6" y="142" textLength="256.2" clip-path="url(#terminal-1500386332-line-5)">&#160;ncsu118-distswitch1&#160;</text><text class="terminal-1500386332-r2" x="353.8" y="142" textLength="256.2" clip-path="url(#terminal-1500386332-line-5)">&#160;ncsu118-distswitch1&#160;</text><text class="terminal-1500386332-r2" x="829.6" y="142" textLength="134.2" clip-path="url(#terminal-1500386332-line-5)">&#160;A3F-22&#160;&#160;&#160;&#160;</text><text class="terminal-1500386332-r1" x="1366.4" y="142" textLength="12.2" clip-path="url(#terminal-1500386332-line-5)">
</text><text class="terminal-1500386332-r1" x="1366.4" y="166.4" textLength="12.2" clip-path="url(#terminal-1500386332-line-6)">
</text><text class="terminal-1500386332-r1" x="1366.4" y="190.8" textLength="12.2" clip-path="url(#terminal-1500386332-line-7)">
</text><text class="terminal-1500386332-r1" x="1366.4" y="215.2" textLength="12.2" clip-path="url(#terminal-1500386332-line-8)">
</text><text class="terminal-1500386332-r1" x="1366.4" y="239.6" textLength="12.2" clip-path="url(#terminal-1500386332-line-9)">
</text><text class="terminal-1500386332-r1" x="1366.4" y="264" textLength="12.2" clip-path="url(#terminal-1500386332-line-10)">
</text><text class="terminal-1500386332-r1" x="1366.4" y="288.4" textLength="12.2" clip-path="url(#terminal-1500386332-line-11)">
</text><text class="terminal-1500386332-r1" x="1366.4" y="312.8" textLength="12.2" clip-path="url(#terminal-1500386332-line-12)">
</text><text class="terminal-1500386332-r1" x="1366.4" y="337.2" textLength="12.2" clip-path="url(#terminal-1500386332-line-13)">
</text><text class="terminal-1500386332-r1" x="1366.4" y="361.6" textLength="12.2" clip-path="url(#terminal-1500386332-line-14)">
</text><text class="terminal-1500386332-r1" x="1366.4" y="386" textLength="12.2" clip-path="url(#terminal-1500386332-line-15)">
</text><text class="terminal-1500386332-r1" x="1366.4" y="410.4" textLength="12.2" clip-path="url(#terminal-1500386332-line-16)">
</text><text class="terminal-1500386332-r1" x="1366.4" y="434.8" textLength="12.2" clip-path="url(#terminal-1500386332-line-17)">
</text><text class="terminal-1500386332-r1" x="1366.4" y="459.2" textLength="12.2" clip-path="url(#terminal-1500386332-line-18)">
</text><text class="terminal-1500386332-r1" x="1366.4" y="483.6" textLength="12.2" clip-path="url(#terminal-1500386332-line-19)">
</text><text class="terminal-1500386332-r1" x="1366.4" y="508" textLength="12.2" clip-path="url(#terminal-1500386332-line-20)">
</text><text class="terminal-1500386332-r1" x="1366.4" y="532.4" textLength="12.2" clip-path="url(#terminal-1500386332-line-21)">
</text><text class="terminal-1500386332-r1" x="1366.4" y="556.8" textLength="12.2" clip-path="url(#terminal-1500386332-line-22)">
</text><text class="terminal-1500386332-r1" x="1366.4" y="581.2" textLength="12.2" clip-path="url(#terminal-1500386332-line-23)">
</text><text class="terminal-1500386332-r1" x="1366.4" y="605.6" textLength="12.2" clip-path="url(#terminal-1500386332-line-24)">
</text><text class="terminal-1500386332-r1" x="1366.4" y="630" textLength="12.2" clip-path="url(#terminal-1500386332-line-25)">
</text><text class="terminal-1500386332-r1" x="1366.4" y="654.4" textLength="12.2" clip-path="url(#terminal-1500386332-line-26)">
</text><text class="terminal-1500386332-r1" x="1366.4" y="678.8" textLength="12.2" clip-path="url(#terminal-1500386332-line-27)">
</text><text class="terminal-1500386332-r1" x="1366.4" y="703.2" textLength="12.2" clip-path="url(#terminal-1500386332-line-28)">
</text><text class="terminal-1500386332-r1" x="1366.4" y="727.6" textLength="12.2" clip-path="url(#terminal-1500386332-line-29)">
</text><text class="terminal-1500386332-r1" x="1366.4" y="752" textLength="12.2" clip-path="url(#terminal-1500386332-line-30)">
</text><text class="terminal-1500386332-r5" x="0" y="776.4" textLength="36.6" clip-path="url(#terminal-1500386332-line-31)">&#160;q&#160;</text><text class="terminal-1500386332-r2" x="36.6" y="776.4" textLength="61" clip-path="url(#terminal-1500386332-line-31)">Quit&#160;</text><text class="terminal-1500386332-r5" x="97.6" y="776.4" textLength="36.6" clip-path="url(#terminal-1500386332-line-31)">&#160;?&#160;</text><text class="terminal-1500386332-r2" x="134.2" y="776.4" textLength="61" clip-path="url(#terminal-1500386332-line-31)">Help&#160;</text><text class="terminal-1500386332-r5" x="195.2" y="776.4" textLength="48.8" clip-path="url(#terminal-1500386332-line-31)">&#160;^p&#160;</text><text class="terminal-1500386332-r2" x="244" y="776.4" textLength="170.8" clip-path="url(#terminal-1500386332-line-31)">Find&#160;resource&#160;</text><text class="terminal-1500386332-r5" x="414.8" y="776.4" textLength="48.8" clip-path="url(#terminal-1500386332-line-31)">&#160;^f&#160;</text><text class="terminal-1500386332-r2" x="463.6" y="776.4" textLength="85.4" clip-path="url(#terminal-1500386332-line-31)">Search&#160;</text><text class="terminal-1500386332-r5" x="549" y="776.4" textLength="61" clip-path="url(#terminal-1500386332-line-31)">&#160;esc&#160;</text><text class="terminal-1500386332-r2" x="610" y="776.4" textLength="61" clip-path="url(#terminal-1500386332-line-31)">Back&#160;</text><text class="terminal-1500386332-r5" x="671" y="776.4" textLength="36.6" clip-path="url(#terminal-1500386332-line-31)">&#160;j&#160;</text><text class="terminal-1500386332-r2" x="707.6" y="776.4" textLength="61" clip-path="url(#terminal-1500386332-line-31)">Down&#160;</text><text class="terminal-1500386332-r5" x="768.6" y="776.4" textLength="36.6" clip-path="url(#terminal-1500386332-line-31)">&#160;k&#160;</text><text class="terminal-1500386332-r2" x="805.2" y="776.4" textLength="36.6" clip-path="url(#terminal-1500386332-line-31)">Up&#160;</text><text class="terminal-1500386332-r5" x="841.8" y="776.4" textLength="36.6" clip-path="url(#terminal-1500386332-line-31)">&#160;g&#160;</text><text class="terminal-1500386332-r2" x="878.4" y="776.4" textLength="48.8" clip-path="url(#terminal-1500386332-line-31)">Top&#160;</text><text class="terminal-1500386332-r5" x="927.2" y="776.4" textLength="36.6" clip-path="url(#terminal-1500386332-line-31)">&#160;G&#160;</text><text class="terminal-1500386332-r2" x="963.8" y="776.4" textLength="85.4" clip-path="url(#terminal-1500386332-line-31)">Bottom&#160;</text><text class="terminal-1500386332-r5" x="1049.2" y="776.4" textLength="36.6" clip-path="url(#terminal-1500386332-line-31)">&#160;/&#160;</text><text class="terminal-1500386332-r2" x="1085.8" y="776.4" textLength="85.4" clip-path="url(#terminal-1500386332-line-31)">Filter&#160;</text><text class="terminal-1500386332-r5" x="1171.2" y="776.4" textLength="36.6" clip-path="url(#terminal-1500386332-line-31)">&#160;r&#160;</text><text class="terminal-1500386332-r2" x="1207.8" y="776.4" textLength="97.6" clip-path="url(#terminal-1500386332-line-31)">Refresh&#160;</text><text class="terminal-1500386332-r5" x="1305.4" y="776.4" textLength="36.6" clip-path="url(#terminal-1500386332-line-31)">&#160;v&#160;</text><text class="terminal-1500386332-r2" x="1342" y="776.4" textLength="24.4" clip-path="url(#terminal-1500386332-line-31)">Se</text>
    </g>
    </g>
</svg>
